<svg xmlns="http://www.w3.org/2000/svg" width="35.338" height="35.338" viewBox="0 0 35.338 35.338">
  <g id="phone-ringing" transform="translate(0)">
    <path id="Path_149" data-name="Path 149" d="M25.4,35.338a9.845,9.845,0,0,1-3.378-.6A36.018,36.018,0,0,1,8.941,26.4,36.016,36.016,0,0,1,.6,13.318a9.774,9.774,0,0,1-.5-4.8A10.023,10.023,0,0,1,5.257,1.177,9.84,9.84,0,0,1,9.968,0a1.1,1.1,0,0,1,1.08.873l1.733,8.089a1.1,1.1,0,0,1-.3,1.012L9.52,12.935A29.067,29.067,0,0,0,22.4,25.818l2.962-2.962a1.1,1.1,0,0,1,1.012-.3l8.089,1.733a1.1,1.1,0,0,1,.873,1.08,9.84,9.84,0,0,1-1.177,4.711,10.023,10.023,0,0,1-7.337,5.151,9.823,9.823,0,0,1-1.426.1ZM9.086,2.257A7.738,7.738,0,0,0,2.68,12.564,33.494,33.494,0,0,0,22.774,32.659a7.738,7.738,0,0,0,10.308-6.406l-6.58-1.41-3.093,3.093a1.1,1.1,0,0,1-1.25.219A31.268,31.268,0,0,1,7.184,13.18,1.1,1.1,0,0,1,7.4,11.93L10.5,8.837Z" transform="translate(0 0)" fill="#fff"/>
    <path id="Path_150" data-name="Path 150" d="M257.688,18.772a1.1,1.1,0,0,1-1.1-1.1,15.477,15.477,0,0,0-15.46-15.46,1.1,1.1,0,0,1,0-2.209,17.668,17.668,0,0,1,17.668,17.668A1.1,1.1,0,0,1,257.688,18.772Z" transform="translate(-223.454)" fill="#fff"/>
    <path id="Path_151" data-name="Path 151" d="M253.271,78.355a1.1,1.1,0,0,1-1.1-1.1,11.055,11.055,0,0,0-11.043-11.043,1.1,1.1,0,0,1,0-2.209,13.266,13.266,0,0,1,13.251,13.251A1.1,1.1,0,0,1,253.271,78.355Z" transform="translate(-223.454 -59.583)" fill="#fff"/>
    <path id="Path_152" data-name="Path 152" d="M248.854,137.938a1.1,1.1,0,0,1-1.1-1.1,6.633,6.633,0,0,0-6.626-6.626,1.1,1.1,0,1,1,0-2.209,8.844,8.844,0,0,1,8.834,8.834A1.1,1.1,0,0,1,248.854,137.938Z" transform="translate(-223.454 -119.166)" fill="#fff"/>
  </g>
</svg>
