<svg xmlns="http://www.w3.org/2000/svg" xmlns:xlink="http://www.w3.org/1999/xlink" width="120" height="120" viewBox="0 0 250 250">
  <defs>
    <style>
      .cls-1 {
        clip-path: url(#clip-shape1);
      }

      .cls-2 {
        fill: #f59d2a;
      }

      .cls-3 {
        fill: #fff;
      }
      svg:hover #Group_162{
        animation: C_shape .8s ease-in-out;
        transform-origin: center;
        transform-box: fill-box;
        animation-fill-mode: forwards;
      }
      @keyframes C_shape{
      0%{
        transform-origin: center;
        transform: translate(37px, 8px) rotate(180deg) scale(.4) ;
        transform-box: fill-box;
      }
      40%{
        transform-origin: center;
        transform: translate(37px, 8px) rotate(180deg) ;
        transform-box: fill-box;
      }
      100%{
        transform-origin: center;
        transform: translate(37px, 8px) rotate(0deg) ;
        transform-box: fill-box;
    }
    </style>
    <clipPath id="clip-shape1">
      <rect width="250" height="250"/>
    </clipPath>
  </defs>
  <g id="shape1" class="cls-1">
    <rect class="cls-3" width="250" height="250"/>
    <g id="group1" transform="translate(-37 -8)">
      <g id="Group_162" data-name="Group 162" transform="translate(37 8)">
        <path id="Subtraction_1" data-name="Subtraction 1" class="cls-2" d="M125,250a125.923,125.923,0,0,1-25.192-2.54,124.319,124.319,0,0,1-44.7-18.809,125.364,125.364,0,0,1-45.288-55A124.373,124.373,0,0,1,2.54,150.192a126.218,126.218,0,0,1,0-50.384,124.316,124.316,0,0,1,18.808-44.7,125.364,125.364,0,0,1,55-45.288A124.361,124.361,0,0,1,99.808,2.54a126.217,126.217,0,0,1,50.384,0,124.319,124.319,0,0,1,44.7,18.808,125.365,125.365,0,0,1,45.288,55,124.362,124.362,0,0,1,7.284,23.464,126.218,126.218,0,0,1,0,50.384,124.32,124.32,0,0,1-18.809,44.7,125.364,125.364,0,0,1-55,45.288,124.367,124.367,0,0,1-23.464,7.284A125.921,125.921,0,0,1,125,250Zm0-200A74.65,74.65,0,0,0,83.067,62.809a75.219,75.219,0,0,0-27.173,33,74.9,74.9,0,0,0,6.915,71.127,75.219,75.219,0,0,0,33,27.173,74.9,74.9,0,0,0,71.127-6.915,75.221,75.221,0,0,0,27.173-33,74.9,74.9,0,0,0-6.915-71.127,75.219,75.219,0,0,0-33-27.173A74.532,74.532,0,0,0,125,50Z"/>
        <path id="Path_136" data-name="Path 136" class="cls-3" d="M-1821.9,9.13l-17.8,46.74c27.486,11.991,48.7,37.989,48.7,70.63s-21.518,58.268-48.68,70.62l20.29,46.03c48.165-17.178,79.39-60.079,79.39-116.65S-1774.22,26.52-1821.9,9.13Z" transform="translate(1990 -1.5)"/>
        <g id="Group_3" data-name="Group 3" transform="translate(134.18 6)">
          <ellipse id="Ellipse_16" data-name="Ellipse 16" class="cls-2" cx="25" cy="25" rx="25" ry="25" transform="translate(0)"/>
          <ellipse id="Ellipse_17" data-name="Ellipse 17" class="cls-2" cx="25" cy="25" rx="25" ry="25" transform="translate(0 188)"/>
        </g>
      </g>
      <path id="Subtraction_20" data-name="Subtraction 20" class="cls-3" d="M-4718.571-5078.35v0h0l-.147-.332a25.079,25.079,0,0,0,9.911-9.048A24.936,24.936,0,0,0-4705-5101a24.853,24.853,0,0,0-1.964-9.731,24.919,24.919,0,0,0-5.357-7.946,24.919,24.919,0,0,0-7.946-5.357A24.853,24.853,0,0,0-4730-5126a24.9,24.9,0,0,0-8.817,1.6,91.177,91.177,0,0,0,19.05-11.658,83.422,83.422,0,0,0,15.447-16.042,74.231,74.231,0,0,0,10.358-19.843A71.548,71.548,0,0,0-4690.18-5195a72.61,72.61,0,0,0-3.732-23.085A74.264,74.264,0,0,0-4704.18-5238a81.305,81.305,0,0,0-15.408-16.058,86.966,86.966,0,0,0-19.156-11.514A24.9,24.9,0,0,0-4730-5264a24.841,24.841,0,0,0,9.731-1.965,24.9,24.9,0,0,0,7.946-5.357,24.926,24.926,0,0,0,5.357-7.947A24.853,24.853,0,0,0-4705-5289a24.844,24.844,0,0,0-4.515-14.335,25.1,25.1,0,0,0-5.087-5.363,24.92,24.92,0,0,0-6.48-3.666l0-.008a128.635,128.635,0,0,1,32.912,17.72,121.686,121.686,0,0,1,25.918,26.272,120.085,120.085,0,0,1,16.978,33.618,129.732,129.732,0,0,1,6.092,39.76,137.793,137.793,0,0,1-5.631,39.677,118.249,118.249,0,0,1-16,33.42,113.86,113.86,0,0,1-25.033,26.035A122.49,122.49,0,0,1-4718.571-5078.35Z" transform="translate(4926.18 5328)"/>
    </g>
  </g>
</svg>
