<svg xmlns="http://www.w3.org/2000/svg" width="70.801" height="70.801" viewBox="0 0 70.801 70.801"><defs><style>.a{opacity:0.8;}.b{fill:#cadbed;}.c{fill:#8798aa;}</style></defs><g class="a"><path class="b" d="M16.041,40.932a7.614,7.614,0,0,1,7.606-7.606H47.155a3.461,3.461,0,0,0,3.457-3.457v-19.5A10.383,10.383,0,0,0,40.241,0h-9.68A10.383,10.383,0,0,0,20.189,10.371v5.67H35.4a2.074,2.074,0,1,1,0,4.149H10.371A10.383,10.383,0,0,0,0,30.561v9.68A10.383,10.383,0,0,0,10.371,50.612h5.67ZM30.561,10.51a2.074,2.074,0,1,1,2.074-2.074A2.074,2.074,0,0,1,30.561,10.51Zm0,0"/><path class="c" d="M186.241,146h-5.67v9.68a7.614,7.614,0,0,1-7.606,7.606H149.457A3.461,3.461,0,0,0,146,166.743v19.5a10.383,10.383,0,0,0,10.371,10.371h9.68a10.383,10.383,0,0,0,10.371-10.371v-5.67H161.211a2.074,2.074,0,1,1,0-4.148h25.029a10.383,10.383,0,0,0,10.371-10.371v-9.68A10.383,10.383,0,0,0,186.241,146Zm-20.189,40.1a2.074,2.074,0,1,1-2.074,2.074A2.074,2.074,0,0,1,166.051,186.1Zm0,0" transform="translate(-125.811 -125.811)"/></g></svg>